{
  "accessors": [
    {
      "bufferView": 2,
      "componentType": 5126,
      "count": 17892,
      "max": [
        -0.11960995197296143,
        1.2272080183029175,
        1.1678969860076904
      ],
      "min": [
        -2.0768380165100098,
        0.12533801794052124,
        0.1305120587348938
      ],
      "type": "VEC3"
    },
    {
      "bufferView": 2,
      "byteOffset": 214704,
      "componentType": 5126,
      "count": 17892,
      "max": [
        0.9998716115951538,
        0.999988317489624,
        1.0
      ],
      "min": [
        -0.9997148513793945,
        -0.9999710917472839,
        -0.9999909996986389
      ],
      "type": "VEC3"
    },
    {
      "bufferView": 3,
      "componentType": 5126,
      "count": 17892,
      "max": [
        1.0,
        0.9992663264274597,
        0.999959409236908,
        1.0
      ],
      "min": [
        -0.9999291896820068,
        -0.9999990463256836,
        -0.9971070885658264,
        -1.0
      ],
      "type": "VEC4"
    },
    {
      "bufferView": 1,
      "componentType": 5126,
      "count": 17892,
      "max": [
        0.9986510276794434,
        0.9989230036735535
      ],
      "min": [
        0.0010770000517368317,
        0.0010769963264465332
      ],
      "type": "VEC2"
    },
    {
      "bufferView": 1,
      "byteOffset": 143136,
      "componentType": 5126,
      "count": 17892,
      "max": [
        0.9986510276794434,
        0.9989230036735535
      ],
      "min": [
        0.0010770000517368317,
        0.0010769963264465332
      ],
      "type": "VEC2"
    },
    {
      "bufferView": 1,
      "byteOffset": 286272,
      "componentType": 5126,
      "count": 17892,
      "max": [
        0.9986510276794434,
        0.9989230036735535
      ],
      "min": [
        0.0010770000517368317,
        0.0010769963264465332
      ],
      "type": "VEC2"
    },
    {
      "bufferView": 1,
      "byteOffset": 429408,
      "componentType": 5126,
      "count": 17892,
      "max": [
        0.9986510276794434,
        0.9989230036735535
      ],
      "min": [
        0.0010770000517368317,
        0.0010769963264465332
      ],
      "type": "VEC2"
    },
    {
      "bufferView": 1,
      "byteOffset": 572544,
      "componentType": 5126,
      "count": 17892,
      "max": [
        0.9986510276794434,
        0.9989230036735535
      ],
      "min": [
        0.0010770000517368317,
        0.0010769963264465332
      ],
      "type": "VEC2"
    },
    {
      "bufferView": 0,
      "componentType": 5125,
      "count": 69261,
      "type": "SCALAR"
    }
  ],
  "asset": {
    "extras": {
      "author": "SofiaWolfie (https://sketchfab.com/SofiaWolfie)",
      "license": "CC-BY-4.0 (http://creativecommons.org/licenses/by/4.0/)",
      "source": "https://sketchfab.com/3d-models/nike-air-jordans-retopo-e1c4e9f2e4ea48f7922bcd5f6b1a1f35",
      "title": "Nike air Jordans Retopo"
    },
    "generator": "Sketchfab-15.0.0",
    "version": "2.0"
  },
  "bufferViews": [
    {
      "buffer": 0,
      "byteLength": 277044,
      "name": "floatBufferViews",
      "target": 34963
    },
    {
      "buffer": 0,
      "byteLength": 715680,
      "byteOffset": 277044,
      "byteStride": 8,
      "name": "floatBufferViews",
      "target": 34962
    },
    {
      "buffer": 0,
      "byteLength": 429408,
      "byteOffset": 992724,
      "byteStride": 12,
      "name": "floatBufferViews",
      "target": 34962
    },
    {
      "buffer": 0,
      "byteLength": 286272,
      "byteOffset": 1422132,
      "byteStride": 16,
      "name": "floatBufferViews",
      "target": 34962
    }
  ],
  "buffers": [
    {
      "byteLength": 1708404,
      "uri": "scene.bin"
    }
  ],
  "extensionsRequired": [
    "KHR_materials_pbrSpecularGlossiness"
  ],
  "extensionsUsed": [
    "KHR_materials_pbrSpecularGlossiness"
  ],
  "images": [
    {
      "uri": "textures/Material.001_diffuse.png"
    },
    {
      "uri": "textures/Material.001_specularGlossiness.png"
    },
    {
      "uri": "textures/Material.001_normal.png"
    }
  ],
  "materials": [
    {
      "extensions": {
        "KHR_materials_pbrSpecularGlossiness": {
          "diffuseFactor": [
            1.0,
            1.0,
            1.0,
            1.0
          ],
          "diffuseTexture": {
            "index": 0
          },
          "glossinessFactor": 1.0,
          "specularFactor": [
            1.0,
            1.0,
            1.0
          ],
          "specularGlossinessTexture": {
            "index": 1
          }
        }
      },
      "name": "Material.001",
      "normalTexture": {
        "index": 2
      }
    }
  ],
  "meshes": [
    {
      "name": "Object_0",
      "primitives": [
        {
          "attributes": {
            "NORMAL": 1,
            "POSITION": 0,
            "TANGENT": 2,
            "TEXCOORD_0": 3,
            "TEXCOORD_1": 4,
            "TEXCOORD_2": 5,
            "TEXCOORD_3": 6,
            "TEXCOORD_4": 7
          },
          "indices": 8,
          "material": 0,
          "mode": 4
        }
      ]
    }
  ],
  "nodes": [
    {
      "children": [
        1
      ],
      "matrix": [
        1.0,
        0.0,
        0.0,
        0.0,
        0.0,
        2.220446049250313e-16,
        -1.0,
        0.0,
        0.0,
        1.0,
        2.220446049250313e-16,
        0.0,
        0.0,
        0.0,
        0.0,
        1.0
      ],
      "name": "Sketchfab_model"
    },
    {
      "children": [
        2
      ],
      "name": "root"
    },
    {
      "children": [
        3
      ],
      "matrix": [
        1.0,
        0.0,
        0.0,
        0.0,
        0.0,
        2.220446049250313e-16,
        1.0,
        0.0,
        0.0,
        -1.0,
        2.220446049250313e-16,
        0.0,
        0.0,
        0.0,
        0.0,
        1.0
      ],
      "name": "GLTF_SceneRootNode"
    },
    {
      "children": [
        4
      ],
      "name": "3d_scan_jordan_retopo_2.obj_0"
    },
    {
      "children": [
        5
      ],
      "name": "target_BSurfaceMesh.005_1"
    },
    {
      "children": [
        6
      ],
      "name": "target_BSurfaceMesh.005_2"
    },
    {
      "mesh": 0,
      "name": "Object_6"
    }
  ],
  "samplers": [
    {
      "magFilter": 9729,
      "minFilter": 9987,
      "wrapS": 10497,
      "wrapT": 10497
    }
  ],
  "scene": 0,
  "scenes": [
    {
      "name": "Sketchfab_Scene",
      "nodes": [
        0
      ]
    }
  ],
  "textures": [
    {
      "sampler": 0,
      "source": 0
    },
    {
      "sampler": 0,
      "source": 1
    },
    {
      "sampler": 0,
      "source": 2
    }
  ]
}
