<?xml version="1.0" encoding="utf-8"?>
<!-- Generator: Adobe Illustrator 24.3.0, SVG Export Plug-In . SVG Version: 6.00 Build 0)  -->
<svg version="1.1" id="Layer_1" xmlns="http://www.w3.org/2000/svg" xmlns:xlink="http://www.w3.org/1999/xlink" x="0px" y="0px"
	 viewBox="0 0 250 250" style="enable-background:new 0 0 250 250;" xml:space="preserve">
<style type="text/css">
	.st0{fill:#020203;}
	.st1{fill:#FFFFFF;stroke:#020203;stroke-width:1.6326;stroke-miterlimit:10;}
	.st2{opacity:0.1;fill:#020203;}
	.st3{fill:#FFFFFF;stroke:#020203;stroke-width:1.4308;stroke-linecap:round;stroke-miterlimit:10;}
	.st4{fill:none;stroke:#020203;stroke-width:1.6326;stroke-linecap:round;stroke-miterlimit:10;}
	.st5{fill:#FFFFFF;stroke:#020203;stroke-width:1.6326;stroke-linecap:round;stroke-miterlimit:10;}
	.st6{fill:#FFFFFF;}
	.st7{fill:none;stroke:#020203;stroke-width:1.6326;stroke-linecap:round;stroke-miterlimit:10;stroke-dasharray:2.449;}
	.st8{fill:none;stroke:#020203;stroke-width:1.6326;stroke-miterlimit:10;}
	.st9{fill:#FFFFFF;stroke:#020203;stroke-width:1.0597;stroke-linecap:round;stroke-miterlimit:10;}
</style>
<g>
	<g>
		<path class="st0" d="M96.03,55.55c0,0-1.51,50,2.17,52.85c3.68,2.84,42.95,8.28,42.95,8.28s21.77-28.85,11.73-48.75
			C142.86,48.03,96.03,55.55,96.03,55.55z"/>
		<path class="st1" d="M139.41,100.56l5.79,39.45c0.6,4.38-1.16,6.33-4.01,9.7c-2.61,3.09-10.6,11.38-12.43,12.47
			c-4.36,2.59-7.37-1.16-9.76-6.13c-2.5-5.21-3.86-10.89-4.19-16.66l-1.02-17.57L139.41,100.56z"/>
		<path class="st2" d="M141.16,116.68c0,0-0.47,16.4-12.37,17.7c-11.9,1.3-13.91-7.62-13.91-7.62L141.16,116.68z"/>
		<path class="st1" d="M127.53,127.22h-16.12c-7.41,0-13.41-6-13.41-13.41l-0.35-51.83c-0.28-2.05-0.17-4.15,0.51-6.1
			c1.82-5.24,6.81-9.01,12.67-9.01h27.47c7.14,0,12.98,5.58,13.39,12.62c0.03,0.52,0,1.05-0.04,1.57l-10.71,52.73
			C140.94,121.21,134.94,127.22,127.53,127.22z"/>
		<path class="st3" d="M140.87,101.64c0,0,4.8-6.91,9.28-0.18c4.48,6.73-3.68,13.49-10.75,9.14"/>
		<g>
			<path class="st3" d="M142.39,106.71c0,0,3.58-3.05,5.2-2.99"/>
			<path class="st3" d="M144.87,104.67c0,0-0.7-1.98-1.56-2.23"/>
		</g>
		<ellipse class="st0" cx="105.35" cy="95.09" rx="2.04" ry="3.74"/>
		<ellipse class="st0" cx="123.6" cy="95.81" rx="2.04" ry="3.74"/>
		<path class="st2" d="M149,105.36c-0.08,1.53-1.2,2.95-2.67,3.38c-0.91,0.26-1.87,0.17-2.82,0.21c-0.54,0.02-1.09,0.09-1.56,0.36
			c-0.46,0.28-0.81,0.81-0.71,1.34c0.09,0.51,0.53,0.88,0.99,1.11c0.98,0.5,2.14,0.58,3.21,0.35c1.07-0.23,2.07-0.75,2.96-1.39
			c1.35-0.97,2.52-2.27,3.04-3.85c0.45-1.37,0.48-3.61-0.82-4.57C148.75,100.9,149.05,104.51,149,105.36z"/>
		<polyline class="st4" points="114.91,142.91 70.5,155.13 63.65,192.5 		"/>
		<polyline class="st4" points="146.26,142.91 189.16,155.87 196.01,193.24 		"/>
		<path class="st5" d="M113.16,87.93c0,0-1,14.88,0.75,14.5s1.75-7.38,1.75-7.38"/>
		<path class="st0" d="M107.16,88.14l-3.88-0.18c-0.58-0.03-1-0.39-0.94-0.8l0.18-1.19c0.05-0.36,0.47-0.64,0.98-0.65l3.98-0.09
			c0.63-0.01,1.12,0.38,1.04,0.82l-0.28,1.46C108.15,87.89,107.69,88.17,107.16,88.14z"/>
		<path class="st0" d="M121.62,88.14l3.88-0.18c0.58-0.03,1-0.39,0.94-0.8l-0.18-1.19c-0.05-0.36-0.47-0.64-0.98-0.65l-3.98-0.09
			c-0.63-0.01-1.12,0.38-1.04,0.82l0.28,1.46C120.62,87.89,121.08,88.17,121.62,88.14z"/>
		<path class="st0" d="M109.47,106.14l11.95-0.19c0,0,2.12,9.54-5.78,9.35C106.38,115.08,109.47,106.14,109.47,106.14z"/>
		<path class="st6" d="M119.21,113.66c0,0-0.87-1.74-3.37-2.02c-2.51-0.29-4.34,1.35-4.34,1.35S114.29,115.59,119.21,113.66z"/>
		<line class="st7" x1="113.31" y1="122.14" x2="116.71" y2="122.14"/>
		<g>
			<g>
				
					<ellipse transform="matrix(0.7071 -0.7071 0.7071 0.7071 -39.9647 99.8823)" class="st8" cx="100.59" cy="98.18" rx="9.77" ry="9.77"/>
				
					<ellipse transform="matrix(0.973 -0.2307 0.2307 0.973 -19.2231 31.9766)" class="st8" cx="127.11" cy="98.18" rx="9.77" ry="9.77"/>
			</g>
			<path class="st8" d="M110.45,96.81c0,0,3.12-2.55,6.7,0.38"/>
		</g>
		<line class="st8" x1="136.89" y1="98.18" x2="143.9" y2="99.01"/>
		<path class="st0" d="M96.88,61.43c0,0,4.44,11.8,21.24,15.67s15.29-4.63,15.29-4.63s4.81,14.73,13.88,13.88
			c9.06-0.85,21.15-45.22-20.58-44.65C84.99,42.27,96.88,61.43,96.88,61.43z"/>
		<path class="st4" d="M103.41,146.23c0,0-1.17,27,23,26c24.17-1,28.83-26.33,28.83-26.33"/>
		<path class="st4" d="M70.5,155.13c0,0,18.91,7.43,35.91,6.27"/>
		<path class="st4" d="M189.16,155.87c0,0-17.59,7.69-41.59,6.19"/>
		<path class="st4" d="M68.74,167.89c0,0,42.17,30,122.83,2.5"/>
		<path class="st4" d="M66.41,178.39c0,0,13.17,16.83,63.17,15.67s65.3-8.5,65.3-8.5"/>
		<path class="st2" d="M127.57,112.39c0,1.29,1.04,2.33,2.33,2.33c1.29,0,2.33-1.04,2.33-2.33c0-1.29-1.04-2.33-2.33-2.33
			C128.62,110.06,127.57,111.1,127.57,112.39z"/>
		<path class="st4" d="M106.07,146.23c0,0,0,23.17,20.67,22.67c16.5-0.4,25.33-23.33,25.33-23.33"/>
	</g>
	<path class="st9" d="M121.35,137.95c0,0,3.9,1.02,5.76-0.85"/>
</g>
</svg>
